HIERARCHY
ROOT SpineBase
{
  OFFSET 0.000000 0.000000 0.000000
  CHANNELS 6 Xposition Yposition Zposition Zrotation Xrotation Yrotation
  JOINT SpineMid
  {
    OFFSET 0.000000 31.232977 0.000000
    CHANNELS 3 Zrotation Xrotation Yrotation
    JOINT SpineShoulder
    {
      OFFSET 0.136984 23.101000 -0.719913
      CHANNELS 3 Zrotation Xrotation Yrotation
      JOINT Neck
      {
        OFFSET 0.097186 7.618541 -0.552004
        CHANNELS 3 Zrotation Xrotation Yrotation
        JOINT Head
        {
          OFFSET 1.963510 14.360958 0.436497
          CHANNELS 3 Zrotation Xrotation Yrotation
          End Site
          {
            OFFSET 0 0 0
          }
        }
      }
      JOINT ShoulderLeft
      {
        OFFSET -13.541049 -2.523874 -10.346430
        CHANNELS 3 Zrotation Xrotation Yrotation
        JOINT ElbowLeft
        {
          OFFSET -8.480872 -27.888707 -4.833684
          CHANNELS 3 Zrotation Xrotation Yrotation
          JOINT WristLeft
          {
            OFFSET 2.136203 -22.337739 -5.372626
            CHANNELS 3 Zrotation Xrotation Yrotation
            JOINT HandLeft
            {
              OFFSET 0.130324 -5.651577 0.825516
              CHANNELS 3 Zrotation Xrotation Yrotation
              JOINT HandTipLeft
              {
                OFFSET 0.428168 -4.821602 -0.884422
                CHANNELS 3 Zrotation Xrotation Yrotation
                End Site
                {
                  OFFSET 0 0 0
                }
              }
              JOINT ThumbLeft
              {
                OFFSET 3.307099 0.383714 -0.103445
                CHANNELS 3 Zrotation Xrotation Yrotation
                End Site
                {
                  OFFSET 0 0 0
                }
              }
            }
          }
        }
      }
      JOINT ShoulderRight
      {
        OFFSET 17.466132 -6.177446 6.809700
        CHANNELS 3 Zrotation Xrotation Yrotation
        JOINT ElbowRight
        {
          OFFSET 21.496106 -12.844933 -1.283926
          CHANNELS 3 Zrotation Xrotation Yrotation
          JOINT WristRight
          {
            OFFSET 0.368520 22.583796 -10.283077
            CHANNELS 3 Zrotation Xrotation Yrotation
            JOINT HandRight
            {
              OFFSET -1.263145 3.370568 -0.571466
              CHANNELS 3 Zrotation Xrotation Yrotation
              JOINT HandTipRight
              {
                OFFSET -4.297943 5.763456 0.677391
                CHANNELS 3 Zrotation Xrotation Yrotation
                End Site
                {
                  OFFSET 0 0 0
                }
              }
              JOINT ThumbRight
              {
                OFFSET -3.280676 -1.224184 -0.615866
                CHANNELS 3 Zrotation Xrotation Yrotation
                End Site
                {
                  OFFSET 0 0 0
                }
              }
            }
          }
        }
      }
    }
  }
  JOINT HipLeft
  {
    OFFSET -6.502028 0.947784 -7.339853
    CHANNELS 3 Zrotation Xrotation Yrotation
    JOINT KneeLeft
    {
      OFFSET -8.548216 -29.848082 3.789618
      CHANNELS 3 Zrotation Xrotation Yrotation
      JOINT AnkleLeft
      {
        OFFSET -6.700360 -31.528407 7.325349
        CHANNELS 3 Zrotation Xrotation Yrotation
        JOINT FootLeft
        {
          OFFSET 5.250738 -4.741750 -12.403077
          CHANNELS 3 Zrotation Xrotation Yrotation
          End Site
          {
            OFFSET 0 0 0
          }
        }
      }
    }
  }
  JOINT HipRight
  {
    OFFSET 7.425912 0.099040 0.170892
    CHANNELS 3 Zrotation Xrotation Yrotation
    JOINT KneeRight
    {
      OFFSET -3.641327 -30.733680 5.597629
      CHANNELS 3 Zrotation Xrotation Yrotation
      JOINT AnkleRight
      {
        OFFSET -4.805086 -31.952282 5.930205
        CHANNELS 3 Zrotation Xrotation Yrotation
        JOINT FootRight
        {
          OFFSET 5.055909 -4.735599 -12.431549
          CHANNELS 3 Zrotation Xrotation Yrotation
          End Site
          {
            OFFSET 0 0 0
          }
        }
      }
    }
  }
}
MOTION
Frames: 13
Frame Time: 0.033333
-46.300900 67.405529 362.975239 -0.000000 0.000000 -28.336091 -0.000000 0.000000 28.336091 -0.000000 0.000000 0.000000 -0.000000 0.000000 0.000000 0.000000 0.000000 0.000000 -0.000000 0.000000 0.000000 -0.000000 0.000000 0.000000 -0.000000 0.000000 0.000000 -0.000000 0.000000 0.000000 0.000000 0.000000 0.000000 0.000000 0.000000 0.000000 -0.000000 0.000000 0.000000 -0.000000 0.000000 0.000000 -0.000000 0.000000 0.000000 -0.000000 0.000000 0.000000 0.000000 0.000000 0.000000 0.000000 0.000000 0.000000 -0.000000 0.000000 28.336091 -0.000000 0.000000 0.000000 -0.000000 0.000000 0.000000 0.000000 0.000000 0.000000 -0.000000 0.000000 28.336091 -0.000000 0.000000 0.000000 -0.000000 0.000000 0.000000 0.000000 0.000000 0.000000
-46.289168 67.405296 362.977519 0.015798 -0.012688 -28.343827 -0.019927 0.003667 28.343829 -0.000000 0.000000 0.000000 -0.000000 0.000000 0.000000 0.000000 0.000000 0.000000 -0.000000 0.000000 0.000000 -0.000000 0.000000 0.000000 -0.924897 0.403380 -0.122629 2.693175 -3.842217 -0.436465 0.000000 0.000000 0.000000 0.000000 0.000000 0.000000 -0.000000 0.000000 0.000000 -0.000000 0.000000 0.000000 0.682653 -2.547100 -0.818855 -0.871288 3.621934 1.684551 0.000000 0.000000 0.000000 0.000000 0.000000 0.000000 -0.019927 0.003667 28.343829 -0.000000 0.000000 0.000000 -0.000000 0.000000 0.000000 0.000000 0.000000 0.000000 -0.019927 0.003667 28.343829 -0.000000 0.000000 0.000000 -0.000000 0.000000 0.000000 0.000000 0.000000 0.000000
-46.278930 67.404877 362.979632 0.030508 -0.024686 -28.351117 -0.038571 0.007238 28.351126 -0.000000 0.000000 0.000000 -0.000000 0.000000 0.000000 0.000000 0.000000 0.000000 -0.000000 0.000000 0.000000 -0.000000 0.000000 0.000000 -1.707739 0.829431 -0.218282 4.925812 -7.200777 -0.691526 0.000000 0.000000 0.000000 0.000000 0.000000 0.000000 -0.000000 0.000000 0.000000 -1.140609 -0.741006 -0.513057 2.276638 -3.556545 -0.891065 -1.616693 6.186383 2.964203 0.000000 0.000000 0.000000 0.000000 0.000000 0.000000 -0.038571 0.007238 28.351126 -0.000000 0.000000 0.000000 -0.000000 0.000000 0.000000 0.000000 0.000000 0.000000 -0.038571 0.007238 28.351126 -0.000000 0.000000 0.000000 -0.000000 0.000000 0.000000 0.000000 0.000000 0.000000
-46.270187 67.404272 362.981577 0.044129 -0.035992 -28.357962 -0.055929 0.010713 28.357981 -0.000000 0.000000 0.000000 -0.000000 0.000000 0.000000 0.000000 0.000000 0.000000 -0.000000 0.000000 0.000000 -0.000000 0.000000 0.000000 -2.338891 1.275308 -0.286842 6.706630 -10.083717 -0.817515 0.000000 0.000000 0.000000 0.000000 0.000000 0.000000 -0.000000 0.000000 0.000000 -1.520995 -0.953854 -0.686931 2.921478 -4.535081 -1.114610 -2.262234 7.915683 3.894772 0.000000 0.000000 0.000000 0.000000 0.000000 0.000000 -0.055929 0.010713 28.357981 -0.000000 0.000000 0.000000 -0.000000 0.000000 0.000000 0.000000 0.000000 0.000000 -0.055929 0.010713 28.357981 -0.000000 0.000000 0.000000 -0.000000 0.000000 0.000000 0.000000 0.000000 0.000000
-46.262939 67.403482 362.983355 0.056659 -0.046605 -28.364364 -0.071998 0.014092 28.364396 -0.000000 0.000000 0.000000 -0.000000 0.000000 0.000000 0.000000 0.000000 0.000000 -0.000000 0.000000 0.000000 -0.000000 0.000000 0.000000 -2.810407 1.738122 -0.328783 8.038380 -12.507602 -0.858044 0.000000 0.000000 0.000000 0.000000 0.000000 0.000000 -0.370351 -0.409907 -0.654055 -1.389682 -0.665202 -0.136515 3.291543 -5.185496 -1.260861 -2.825538 8.937047 4.503867 0.000000 0.000000 0.000000 0.000000 0.000000 0.000000 -0.071998 0.014092 28.364396 -0.000000 0.000000 0.000000 -0.000000 0.000000 0.000000 0.000000 0.000000 0.000000 -0.071998 0.014092 28.364396 -0.000000 0.000000 0.000000 -0.000000 0.000000 0.000000 0.000000 0.000000 0.000000
-46.257185 67.402506 362.984966 0.068098 -0.056524 -28.370324 -0.086777 0.017377 28.370371 -0.000000 0.000000 0.000000 -0.000000 0.000000 0.000000 0.000000 0.000000 0.000000 -0.000000 0.000000 0.000000 -0.000000 0.000000 0.000000 -3.116124 2.214984 -0.345131 8.917726 -14.489141 -0.848894 0.000000 0.000000 0.000000 0.000000 0.000000 0.000000 -0.402567 -0.408347 -0.648608 -1.467004 -0.663911 -0.192108 3.402106 -5.583045 -1.354727 -3.318933 9.316844 4.799112 0.000000 0.000000 0.000000 0.000000 0.000000 0.000000 -0.086777 0.017377 28.370371 -0.000000 0.000000 0.000000 -0.000000 0.000000 0.000000 0.000000 0.000000 0.000000 -0.086777 0.017377 28.370371 -0.000000 0.000000 0.000000 -0.000000 0.000000 0.000000 0.000000 0.000000 0.000000
-46.252386 67.400658 362.987630 0.082494 -0.066983 -28.384410 -0.104419 0.019714 28.384476 -0.000000 0.000000 0.000000 -0.000000 0.000000 0.000000 0.000000 0.000000 0.000000 -0.000000 0.000000 0.000000 -0.000000 0.000000 0.000000 -2.828706 3.270010 -0.258307 9.300465 -16.208410 -0.818327 0.000000 0.000000 0.000000 0.000000 0.000000 0.000000 -0.000000 0.000000 0.000000 -2.051469 -1.081624 -0.931614 3.755079 -5.728420 -1.306959 -4.606523 9.797292 5.433247 0.000000 0.000000 0.000000 0.000000 0.000000 0.000000 -0.104419 0.019714 28.384476 -0.000000 0.000000 0.000000 -0.000000 0.000000 0.000000 0.000000 0.000000 0.000000 -0.104419 0.019714 28.384476 -0.000000 0.000000 0.000000 -0.000000 0.000000 0.000000 0.000000 0.000000 0.000000
-46.249244 67.399509 362.988900 0.091384 -0.074186 -28.394683 -0.115668 0.021804 28.394764 -0.000000 0.000000 0.000000 -0.000000 0.000000 0.000000 0.000000 0.000000 0.000000 -0.000000 0.000000 0.000000 -0.000000 0.000000 0.000000 -2.769428 3.550760 -0.238051 9.782706 -16.342400 -0.794944 0.000000 0.000000 0.000000 0.000000 0.000000 0.000000 -0.000000 0.000000 0.000000 -1.870482 -0.826316 -0.848739 3.311969 -5.404240 -1.216159 -3.140471 7.874775 3.831406 0.000000 0.000000 0.000000 0.000000 0.000000 0.000000 -0.115668 0.021804 28.394764 -0.000000 0.000000 0.000000 -0.000000 0.000000 0.000000 0.000000 0.000000 0.000000 -0.115668 0.021804 28.394764 -0.000000 0.000000 0.000000 -0.000000 0.000000 0.000000 0.000000 0.000000 0.000000
-46.252394 67.397209 362.985613 0.096018 -0.073047 -28.390046 -0.119202 0.018608 28.390126 -0.000000 0.000000 0.000000 -0.000000 0.000000 0.000000 0.000000 0.000000 0.000000 -0.000000 0.000000 0.000000 -0.000000 0.000000 0.000000 -2.604815 4.036610 -0.196729 8.634353 -19.303246 -0.857153 0.000000 0.000000 0.000000 0.000000 0.000000 0.000000 -0.000000 0.000000 0.000000 -1.450545 -0.339870 -0.658236 2.574527 -5.413269 -1.266019 -4.797889 6.702098 3.664480 0.000000 0.000000 0.000000 0.000000 0.000000 0.000000 -0.119202 0.018608 28.390126 -0.000000 0.000000 0.000000 -0.000000 0.000000 0.000000 0.000000 0.000000 0.000000 -0.119202 0.018608 28.390126 -0.000000 0.000000 0.000000 -0.000000 0.000000 0.000000 0.000000 0.000000 0.000000
-46.249532 67.394185 362.985716 0.102331 -0.078983 -28.397377 -0.127581 0.020812 28.397471 -0.000000 0.000000 0.000000 -0.000000 0.000000 0.000000 0.000000 0.000000 0.000000 -0.000000 0.000000 0.000000 -0.000000 0.000000 0.000000 -2.490549 4.326058 -0.170989 6.022976 -17.879048 -0.815204 0.000000 0.000000 0.000000 0.000000 0.000000 0.000000 -0.000000 0.000000 0.000000 -0.000000 0.000000 0.000000 0.541445 -4.818975 -1.677371 -3.315616 3.707548 1.475764 0.000000 0.000000 0.000000 0.000000 0.000000 0.000000 -0.127581 0.020812 28.397471 -0.000000 0.000000 0.000000 -0.000000 0.000000 0.000000 0.000000 0.000000 0.000000 -0.127581 0.020812 28.397471 -0.000000 0.000000 0.000000 -0.000000 0.000000 0.000000 0.000000 0.000000 0.000000
-46.248000 67.391785 362.980691 0.098375 -0.080004 -28.392274 -0.124584 0.023603 28.392368 -0.000000 0.000000 0.000000 -0.000000 0.000000 0.000000 0.000000 0.000000 0.000000 -0.000000 0.000000 0.000000 -0.000000 0.000000 0.000000 -2.866788 3.833349 -0.235737 5.910382 -17.798725 -0.805175 0.000000 0.000000 0.000000 0.000000 0.000000 0.000000 -1.080054 -0.243165 -0.306165 1.047187 1.300958 0.272817 -4.308565 -8.684366 -3.947945 -0.212470 5.707681 2.846251 0.000000 0.000000 0.000000 0.000000 0.000000 0.000000 -0.124584 0.023603 28.392368 -0.000000 0.000000 0.000000 -0.000000 0.000000 0.000000 0.000000 0.000000 0.000000 -0.124584 0.023603 28.392368 -0.000000 0.000000 0.000000 -0.000000 0.000000 0.000000 0.000000 0.000000 0.000000
-46.249611 67.397694 362.976096 0.086293 -0.088835 -28.374340 -0.118143 0.037153 28.374445 -0.000000 0.000000 0.000000 -0.000000 0.000000 0.000000 0.000000 0.000000 0.000000 -0.000000 0.000000 0.000000 -0.000000 0.000000 0.000000 -2.811589 3.430388 -0.248658 3.546963 -18.766929 -0.958512 0.000000 0.000000 0.000000 0.000000 0.000000 0.000000 -0.949148 -0.051145 0.008984 1.070944 1.704768 0.016814 -1.862659 -5.852915 -2.012015 0.133035 4.194869 2.079802 0.000000 0.000000 0.000000 0.000000 0.000000 0.000000 -0.118143 0.037153 28.374445 -0.000000 0.000000 0.000000 -0.000000 0.000000 0.000000 0.000000 0.000000 0.000000 -0.118143 0.037153 28.374445 -0.000000 0.000000 0.000000 -0.000000 0.000000 0.000000 0.000000 0.000000 0.000000
-46.252034 67.406002 362.985815 0.061980 -0.121489 -28.330865 -0.112210 0.077524 28.331007 -0.000000 0.000000 0.000000 -0.000000 0.000000 0.000000 0.000000 0.000000 0.000000 -0.000000 0.000000 0.000000 -0.000000 0.000000 0.000000 -3.405152 1.964904 -0.395064 2.984675 -17.973372 -0.929549 0.000000 0.000000 0.000000 0.000000 0.000000 0.000000 -0.586101 0.290547 0.550875 0.366712 2.029192 -0.692596 3.173790 -1.287529 1.119311 -4.454680 0.626836 0.467701 0.000000 0.000000 0.000000 0.000000 0.000000 0.000000 -0.112210 0.077524 28.331007 -0.000000 0.000000 0.000000 -0.000000 0.000000 0.000000 0.000000 0.000000 0.000000 -0.112210 0.077524 28.331007 -0.000000 0.000000 0.000000 -0.000000 0.000000 0.000000 0.000000 0.000000 0.000000
